<svg height="47" width="113" xmlns="http://www.w3.org/2000/svg" viewBox="0 0 113 47"><path fill="#ffca28" fill-rule="evenodd" d="M11.55 43.42c2.27.67 4.67 1.03 7.17 1.03 2.46 0 4.84-.36 7.09-1.01l-2.22-13.69c3.91-1.82 6.62-5.77 6.62-10.35 0-6.31-5.15-11.42-11.49-11.42-6.35 0-11.5 5.11-11.5 11.42 0 4.55 2.68 8.48 6.55 10.32l-2.22 13.7zm0 0"/><path fill="#252b33" fill-rule="evenodd" d="M18.72 46.31c-2.61 0-5.2-.37-7.7-1.11a1.86 1.86 0 0 1-1.32-2.08l.57-3.48c.16-1.01 1.12-1.7 2.14-1.53 1.02.16 1.71 1.11 1.55 2.13l-.3 1.8c3.29.73 6.74.73 10.03.02l-1.95-12.02c-.13-.81.3-1.62 1.05-1.98 3.37-1.56 5.55-4.97 5.55-8.66 0-5.27-4.32-9.57-9.62-9.57-5.31 0-9.63 4.3-9.63 9.57 0 3.67 2.16 7.06 5.49 8.64.93.44 1.33 1.55.88 2.48-.44.92-1.56 1.32-2.49.87-4.63-2.19-7.62-6.9-7.62-11.99 0-7.32 6-13.28 13.37-13.28 7.36 0 13.36 5.96 13.36 13.28 0 4.65-2.49 8.97-6.44 11.36l2.02 12.38c.15.93-.42 1.82-1.32 2.08a27.36 27.36 0 0 1-7.62 1.09"/><path fill="#252b33" fill-rule="evenodd" d="M36.29 38.73c-.48 0-.96-.19-1.32-.55l-5.66-5.63c-.74-.72-.74-1.9 0-2.62 2.82-2.82 4.38-6.55 4.38-10.53 0-8.21-6.72-14.89-14.97-14.89-8.26 0-14.98 6.68-14.98 14.89 0 6.21 3.93 11.82 9.78 13.97.01 0 .02 0 .03.01 1.65.6 3.39.91 5.17.91 1.03 0 1.87.83 1.87 1.85 0 1.03-.84 1.86-1.87 1.86-2.21 0-4.38-.38-6.44-1.13-.01 0-.02 0-.03-.01C4.92 34.18 0 27.16 0 19.4 0 9.14 8.4.8 18.72.8c10.32 0 18.71 8.34 18.71 18.6 0 4.34-1.49 8.46-4.22 11.78l4.4 4.37c.73.73.73 1.9 0 2.63-.36.36-.84.55-1.32.55m22.4-22.14v6.23h-3.34v-5.41c0-1.71-.55-2.21-1.67-2.21-1.13 0-1.92.79-1.92 2.4v5.22h-3.34V12.43h3.34v1.26h.02c.83-.96 1.95-1.46 3.16-1.46 2.19 0 3.75 1.08 3.75 4.36m8.93 1.05c0-1.45-.96-2.44-2.26-2.44-1.35 0-2.28 1.03-2.28 2.44 0 1.38.96 2.43 2.28 2.43 1.27 0 2.26-1.01 2.26-2.43m-7.9 0c0-3.16 2.28-5.41 5.64-5.41 3.31 0 5.63 2.21 5.63 5.41 0 3.18-2.32 5.39-5.63 5.39-3.36 0-5.64-2.24-5.64-5.39m26.88-5.21l-3.54 10.39h-2.79l-1.61-5.79h-.03l-1.59 5.79h-2.78l-3.54-10.39h3.33L75.76 18h.04l1.54-5.57h2.62l1.56 5.58h.04l1.72-5.58h3.32zM53.27 29.04c-1.01 0-1.8.58-2.02 1.65l3.91-.02c-.22-1.01-.89-1.63-1.89-1.63zm5.17 2.64c0 .3-.05.76-.08.99h-7.12c.24 1.17 1.27 1.79 2.47 1.79.97 0 1.82-.42 2.54-1.25l1.77 1.98c-.88 1.11-2.49 1.98-4.66 1.98-3.1 0-5.44-2.18-5.44-5.39 0-3.15 2.25-5.39 5.31-5.39 3.05 0 5.21 2.21 5.21 5.3v-.01zm.24 3.96l1.58-2.23c.88.81 1.77 1.18 2.75 1.18.6 0 .93-.21.93-.58 0-.27-.32-.49-1.6-.88-1.74-.54-3.27-1.41-3.27-3.47 0-2.02 1.73-3.27 3.93-3.27 1.54 0 2.72.42 3.93 1.31l-1.59 2.38c-.74-.73-1.65-1.09-2.35-1.09-.3 0-.75.11-.75.53 0 .26.39.52 1.37.87 2.31.83 3.56 1.37 3.57 3.43 0 1.93-1.36 3.36-4.21 3.36-1.63 0-3.1-.51-4.29-1.54m14.4 1.54c-3.1 0-5.43-2.19-5.43-5.39 0-3.21 2.32-5.4 5.59-5.4 1.71 0 3.47.7 4.52 2.07l-2.23 1.9c-.5-.6-1.2-1.01-2.16-1.01-1.41 0-2.35.99-2.35 2.41 0 1.45.97 2.45 2.38 2.45 1.03 0 1.72-.48 2.13-.94l2.28 1.98c-.9 1.07-2.53 1.93-4.73 1.93zm12.6-5.38c0-1.43-.95-2.47-2.2-2.47-1.28 0-2.25.99-2.25 2.47 0 1.46.93 2.45 2.24 2.45 1.22 0 2.21-.97 2.21-2.45zm3.21-5.22v10.39h-3.17v-1.12h-.04c-.67.87-1.65 1.32-2.9 1.32-2.88 0-4.93-2.17-4.93-5.38 0-3.17 2.07-5.4 4.77-5.4 1.13 0 2.14.43 2.88 1.29h.04v-1.1h3.35zm9.39 5.22c0-1.48-.97-2.47-2.24-2.47-1.33 0-2.29 1.04-2.29 2.47 0 1.48.99 2.45 2.3 2.45 1.3 0 2.23-.99 2.23-2.45m3.38-.01c0 3.21-2.05 5.38-4.92 5.38-1.2 0-2.14-.44-2.82-1.21h-.05v5.21h-3.34V26.58h3.35v1.12h.04c.75-.87 1.8-1.31 2.98-1.31 2.7 0 4.76 2.23 4.76 5.4m5.96-2.75c-1 0-1.8.58-2.02 1.65l3.92-.02c-.22-1.01-.9-1.63-1.9-1.63zm5.17 2.64c0 .3-.05.76-.08.99h-7.12c.24 1.17 1.28 1.79 2.48 1.79.97 0 1.81-.42 2.53-1.25l1.77 1.98c-.88 1.11-2.49 1.98-4.66 1.98-3.1 0-5.43-2.18-5.43-5.39 0-3.15 2.24-5.39 5.31-5.39 3.04 0 5.2 2.21 5.2 5.3v-.01zm0 0"/></svg>