<svg viewBox="0 0 170 32" xmlns="http://www.w3.org/2000/svg" width="123px"><path d="m64.5 2.4h-5.7l7.4 10.3 2.3-3.3c.7-1 .7-2.4 0-3.5l-1.7-2.3c-.5-.8-1.3-1.2-2.3-1.2" fill="#454c59"></path><path d="m73.1 22.3 3.2 4.4c.6.8 1.5 1.2 2.4 1.2h5.7l-8.6-12-2.5 2.6c-.9 1.2-1 2.7-.2 3.8" fill="#454c59"></path><path d="m86.8 0-29.7 31.9c-.3.4-.9-.1-.6-.5l21.4-30.2c.6-.8 1.5-1.2 2.4-1.2z" fill="#00a5ef"></path><g fill="#454c59"><path d="m46.2 22.5h-11.8l-2.3 5.5h-6.1l11.4-25.6h5.9l11.4 25.6h-6.2zm-1.8-4.5-4.1-9.8-4 9.8z"></path><path d="m98.3 7.2v6.7h11.7v4.8h-11.7v9.3h-5.9v-25.6h19.2v4.8z"></path><path d="m119.6 16.7v-14.3h5.9v14.1c0 4.9 2.1 6.9 5.7 6.9s5.6-2 5.6-6.9v-14.1h5.9v14.3c0 7.5-4.3 11.7-11.6 11.7-7.2 0-11.5-4.1-11.5-11.7"></path><path d="m150.8 2.4h5.9v20.8h13.3v4.8h-19.2z"></path><path d="m22.2 11.7c0 5.7-4.3 9.2-11.1 9.2h-5.2v7.1h-5.9v-25.6h11.1c6.8 0 11.1 3.5 11.1 9.3m-6 0c0-2.8-1.8-4.5-5.4-4.5h-4.9v8.9h4.8c3.7 0 5.5-1.6 5.5-4.4"></path></g></svg>